<svg width="87" height="25" viewBox="0 0 87 25" fill="none" xmlns="http://www.w3.org/2000/svg">
<path d="M7.43477 3.26L7.13477 3.36L5.94477 1.59H3.18477V4.76H4.75477L5.48477 3.48H5.79477V6.22L5.39477 6.42L4.78477 5.21H3.17477V8.17L4.72477 8.6L4.52477 9H0.984766V8.69L1.92477 7.95V1.89L0.884766 1.54L1.08477 1.14H6.88477L7.43477 0.96V3.26ZM14.7289 9H8.72891V8.69L9.66891 7.95V1.89L8.62891 1.54L8.82891 1.14H11.8689V1.45L10.9189 2.19V8.55H13.4989L14.9689 6.38L15.2689 6.48V9.18L14.7289 9ZM20.9707 0.939999C21.6774 0.939999 22.3007 1.11 22.8407 1.45C23.3874 1.79 23.8107 2.26 24.1107 2.86C24.4107 3.46 24.5607 4.14 24.5607 4.9C24.5607 5.68 24.334 6.4 23.8807 7.06C23.4274 7.72 22.864 8.24333 22.1907 8.63C21.5174 9.01 20.874 9.2 20.2607 9.2C19.554 9.2 18.9274 9.03333 18.3807 8.7C17.8407 8.36 17.4207 7.89 17.1207 7.29C16.8207 6.69 16.6707 6.01 16.6707 5.25C16.6707 4.47 16.8974 3.75 17.3507 3.09C17.804 2.42333 18.3674 1.9 19.0407 1.52C19.714 1.13333 20.3574 0.939999 20.9707 0.939999ZM20.3907 1.78C19.9507 1.78 19.5474 1.91 19.1807 2.17C18.8207 2.42333 18.5374 2.78 18.3307 3.24C18.124 3.69333 18.0207 4.20333 18.0207 4.77C18.0207 5.42333 18.124 6.02333 18.3307 6.57C18.5374 7.11 18.8507 7.54333 19.2707 7.87C19.6974 8.19667 20.2207 8.36 20.8407 8.36C21.2807 8.36 21.6807 8.23333 22.0407 7.98C22.4074 7.72 22.694 7.36333 22.9007 6.91C23.1074 6.45 23.2107 5.93667 23.2107 5.37C23.2107 4.71 23.1074 4.11 22.9007 3.57C22.694 3.02333 22.3807 2.59 21.9607 2.27C21.5407 1.94333 21.0174 1.78 20.3907 1.78ZM33.1578 9.02H31.2978L29.0978 5.47L28.6278 5.13L28.7778 4.83H29.3378C29.7911 4.83 30.1478 4.71667 30.4078 4.49C30.6745 4.25667 30.8078 3.94 30.8078 3.54C30.8078 3.01333 30.6611 2.57667 30.3678 2.23C30.0745 1.87667 29.6478 1.7 29.0878 1.7C28.7145 1.7 28.3711 1.81 28.0578 2.03V8.26L29.1078 8.62L28.9078 9.02H25.8678V8.71L26.8078 7.97V1.89L25.7678 1.55L25.9678 1.15H27.1278C27.7345 1.15 28.3311 1.13 28.9178 1.09C29.3445 1.06333 29.6611 1.05 29.8678 1.05C30.3145 1.05 30.7111 1.14 31.0578 1.32C31.4111 1.5 31.6811 1.74333 31.8678 2.05C32.0611 2.35667 32.1578 2.69333 32.1578 3.06C32.1578 3.39333 32.0545 3.71333 31.8478 4.02C31.6411 4.32 31.3678 4.58333 31.0278 4.81C30.6945 5.03 30.3411 5.19667 29.9678 5.31L30.6178 5.53L32.1678 8.03L33.3578 8.62L33.1578 9.02ZM40.8367 1.05C41.5234 1.05 42.1301 1.21667 42.6567 1.55C43.1901 1.87667 43.6001 2.33333 43.8867 2.92C44.1801 3.50667 44.3267 4.17 44.3267 4.91C44.3267 5.67 44.1034 6.37333 43.6567 7.02C43.2167 7.66 42.6667 8.17 42.0067 8.55C41.3534 8.92333 40.7267 9.11 40.1267 9.11C39.8201 9.11 39.5101 9.09333 39.1967 9.06C38.6834 9.02667 38.2867 9.01 38.0067 9.01H36.7367V8.7L37.6767 7.96V1.88L36.6367 1.54L36.8367 1.14H37.9967C38.6301 1.14 39.2467 1.12 39.8467 1.08C40.3001 1.05333 40.6301 1.04 40.8367 1.04V1.05ZM40.4067 8.37C40.8867 8.37 41.3234 8.24333 41.7167 7.99C42.1101 7.73 42.4167 7.37333 42.6367 6.92C42.8634 6.46 42.9767 5.94667 42.9767 5.38C42.9767 4.7 42.8701 4.08333 42.6567 3.53C42.4434 2.97 42.1167 2.52333 41.6767 2.19C41.2434 1.85667 40.7034 1.69 40.0567 1.69C39.6501 1.69 39.2734 1.81 38.9267 2.05V8.12C39.3334 8.28667 39.8267 8.37 40.4067 8.37ZM51.6234 9H45.6234V8.69L46.5634 7.95V1.89L45.5234 1.54L45.7234 1.14H51.5234L52.0634 0.96V3.26L51.7634 3.36L50.5734 1.59H47.8134V4.76H49.3834L50.1134 3.48H50.4234V6.52L50.0234 6.72L49.3934 5.21H47.8134V8.55H50.5334L51.8634 6.58L52.1634 6.68V9.18L51.6234 9ZM63.7509 2.19L60.9209 8.68L59.8809 9.19L56.9609 2.15L55.9609 1.54L56.1609 1.14H59.2009V1.45L58.2609 2.18L60.6709 7.99L63.2109 2.14L61.4509 1.54L61.6509 1.14H64.6909V1.45L63.7509 2.19ZM68.3314 9H65.2914V8.69L66.2314 7.95V1.89L65.1914 1.54L65.3914 1.14H68.4314V1.45L67.4814 2.19V8.24L68.5314 8.6L68.3314 9ZM73.7273 1.05C74.414 1.05 75.0207 1.21667 75.5473 1.55C76.0807 1.87667 76.4907 2.33333 76.7773 2.92C77.0707 3.50667 77.2173 4.17 77.2173 4.91C77.2173 5.67 76.994 6.37333 76.5473 7.02C76.1073 7.66 75.5573 8.17 74.8973 8.55C74.244 8.92333 73.6173 9.11 73.0173 9.11C72.7107 9.11 72.4007 9.09333 72.0873 9.06C71.574 9.02667 71.1773 9.01 70.8973 9.01H69.6273V8.7L70.5673 7.96V1.88L69.5273 1.54L69.7273 1.14H70.8873C71.5207 1.14 72.1373 1.12 72.7373 1.08C73.1907 1.05333 73.5207 1.04 73.7273 1.04V1.05ZM73.2973 8.37C73.7773 8.37 74.214 8.24333 74.6073 7.99C75.0007 7.73 75.3073 7.37333 75.5273 6.92C75.754 6.46 75.8673 5.94667 75.8673 5.38C75.8673 4.7 75.7607 4.08333 75.5473 3.53C75.334 2.97 75.0073 2.52333 74.5673 2.19C74.134 1.85667 73.594 1.69 72.9473 1.69C72.5407 1.69 72.164 1.81 71.8173 2.05V8.12C72.224 8.28667 72.7173 8.37 73.2973 8.37ZM86.4141 9H83.3741V8.69L84.3141 7.96L83.5441 6.11H80.1841L79.3641 8L81.1241 8.6L80.9241 9H77.8841V8.69L78.8241 7.95L81.6541 1.46L82.6941 0.949999L85.6141 7.99L86.6141 8.6L86.4141 9ZM81.9041 2.15L80.3841 5.66H83.3641L81.9041 2.15ZM20.4952 24H18.5952V16.57C18.4418 16.4033 18.2252 16.27 17.9452 16.17C17.6652 16.0633 17.3985 16.01 17.1452 16.01C16.7918 16.01 16.4985 16.1533 16.2652 16.44C16.0318 16.72 15.9152 17.1133 15.9152 17.62V18.99H17.7152V19.4H15.9152V23.17L17.3152 23.6L17.1152 24H13.8252V23.69L14.7152 22.99V19.4H13.5352V18.99H14.7152V18.1C14.7152 17.5867 14.8752 17.1067 15.1952 16.66C15.5218 16.2067 15.9285 15.8467 16.4152 15.58C16.9018 15.3067 17.3718 15.17 17.8252 15.17C18.2652 15.17 18.7985 15.2033 19.4252 15.27H19.8052V23.25L20.6952 23.6L20.4952 24ZM24.7686 18.59C25.2086 18.59 25.6019 18.7067 25.9486 18.94C26.3019 19.1667 26.5753 19.4767 26.7686 19.87C26.9686 20.2633 27.0686 20.6967 27.0686 21.17C27.0686 21.6833 26.9119 22.1667 26.5986 22.62C26.2853 23.0667 25.8919 23.4267 25.4186 23.7C24.9519 23.9667 24.4986 24.1 24.0586 24.1C23.6186 24.1 23.2219 23.9867 22.8686 23.76C22.5219 23.5267 22.2486 23.2133 22.0486 22.82C21.8553 22.4267 21.7586 21.9933 21.7586 21.52C21.7586 21.0067 21.9153 20.5267 22.2286 20.08C22.5419 19.6267 22.9319 19.2667 23.3986 19C23.8719 18.7267 24.3286 18.59 24.7686 18.59ZM24.1886 19.43C23.4353 19.43 23.0586 19.9667 23.0586 21.04C23.0586 21.6733 23.1953 22.2033 23.4686 22.63C23.7419 23.05 24.1319 23.26 24.6386 23.26C25.3919 23.26 25.7686 22.72 25.7686 21.64C25.7686 21.0133 25.6319 20.49 25.3586 20.07C25.0853 19.6433 24.6953 19.43 24.1886 19.43ZM31.9276 18.6C32.1476 18.6 32.3409 18.66 32.5076 18.78C32.6742 18.9 32.8042 19.0667 32.8976 19.28L32.2376 20.11H31.8576C31.8309 19.9433 31.7809 19.8267 31.7076 19.76C31.6409 19.6867 31.5476 19.65 31.4276 19.65C31.2809 19.65 31.1242 19.69 30.9576 19.77C30.7976 19.8433 30.6142 19.9867 30.4076 20.2V23.18L31.8076 23.61L31.6076 24.01H28.3176V23.7L29.2076 23V20.17L28.3176 19.65V19.34L30.0276 18.5L30.3376 19.73L31.3776 18.67C31.5176 18.6167 31.7009 18.59 31.9276 18.59V18.6ZM36.2931 24H33.5031V23.69L34.3931 22.99V20.07L33.5031 19.45V19.14L35.2131 18.5H35.5931V23.25L36.4931 23.6L36.2931 24ZM34.9531 15.5C35.1531 15.5 35.3165 15.5733 35.4431 15.72C35.5765 15.8667 35.6431 16.05 35.6431 16.27C35.6431 16.4233 35.5965 16.57 35.5031 16.71C35.4098 16.8433 35.2931 16.95 35.1531 17.03C35.0131 17.11 34.8765 17.15 34.7431 17.15C34.5431 17.15 34.3765 17.0767 34.2431 16.93C34.1165 16.7833 34.0531 16.6 34.0531 16.38C34.0531 16.2267 34.0998 16.0833 34.1931 15.95C34.2865 15.81 34.4031 15.7 34.5431 15.62C34.6831 15.54 34.8198 15.5 34.9531 15.5ZM40.3498 18.59C40.6232 18.59 40.9398 18.63 41.2998 18.71C41.6665 18.7833 41.9298 18.8667 42.0898 18.96V20.5H41.7098C41.4498 20.1667 41.1498 19.9067 40.8098 19.72C40.4765 19.5267 40.1298 19.43 39.7698 19.43C39.4632 19.43 39.2298 19.5667 39.0698 19.84C38.9165 20.1133 38.8398 20.5133 38.8398 21.04C38.8398 21.6667 38.9765 22.1933 39.2498 22.62C39.5232 23.04 39.9132 23.25 40.4198 23.25C40.7998 23.25 41.3398 22.9767 42.0398 22.43L42.3398 22.81L40.7998 24.02C40.5332 24.0733 40.2132 24.1 39.8398 24.1C39.3998 24.1 39.0032 23.9867 38.6498 23.76C38.3032 23.5267 38.0298 23.2133 37.8298 22.82C37.6365 22.4267 37.5398 21.9933 37.5398 21.52C37.5398 21.0067 37.6832 20.5233 37.9698 20.07C38.2632 19.6167 38.6298 19.2567 39.0698 18.99C39.5098 18.7233 39.9365 18.59 40.3498 18.59ZM49.4127 24H47.5127V22.96L46.2427 24.02C46.1027 24.0733 45.9193 24.1 45.6927 24.1C45.2393 24.1 44.8793 23.9633 44.6127 23.69C44.346 23.41 44.2127 23.0333 44.2127 22.56V20.17L43.3227 19.65V19.34L45.0327 18.5H45.4127V22.06C45.4127 22.4267 45.4693 22.6833 45.5827 22.83C45.696 22.9767 45.8993 23.05 46.1927 23.05C46.3993 23.05 46.6027 23.0133 46.8027 22.94C47.0027 22.86 47.2393 22.7067 47.5127 22.48V20.17L46.6227 19.65V19.34L48.3327 18.5H48.7127V23.25L49.6127 23.6L49.4127 24ZM53.1048 24H50.3148V23.69L51.2048 22.99V16.84L50.3148 16.22V15.91L52.0248 15.27H52.4048V23.25L53.3048 23.6L53.1048 24ZM57.0563 24.02C56.9029 24.0733 56.7163 24.1 56.4963 24.1C55.9429 24.1 55.5363 23.9567 55.2763 23.67C55.0229 23.3767 54.8963 22.9267 54.8963 22.32V19.4H53.8163V18.99L55.7163 16.78H56.0963V18.99H57.8963V19.4H56.0963V22.44C56.0963 22.98 56.3563 23.25 56.8763 23.25C57.0163 23.25 57.1496 23.22 57.2763 23.16C57.4096 23.1 57.5729 22.9933 57.7663 22.84L58.0663 23.22L57.0563 24.02ZM64.6568 24H62.7568V22.96L61.4868 24.02C61.3468 24.0733 61.1635 24.1 60.9368 24.1C60.4835 24.1 60.1235 23.9633 59.8568 23.69C59.5901 23.41 59.4568 23.0333 59.4568 22.56V20.17L58.5668 19.65V19.34L60.2768 18.5H60.6568V22.06C60.6568 22.4267 60.7135 22.6833 60.8268 22.83C60.9401 22.9767 61.1435 23.05 61.4368 23.05C61.6435 23.05 61.8468 23.0133 62.0468 22.94C62.2468 22.86 62.4835 22.7067 62.7568 22.48V20.17L61.8668 19.65V19.34L63.5768 18.5H63.9568V23.25L64.8568 23.6L64.6568 24ZM69.369 18.6C69.589 18.6 69.7823 18.66 69.949 18.78C70.1157 18.9 70.2457 19.0667 70.339 19.28L69.679 20.11H69.299C69.2723 19.9433 69.2223 19.8267 69.149 19.76C69.0823 19.6867 68.989 19.65 68.869 19.65C68.7223 19.65 68.5657 19.69 68.399 19.77C68.239 19.8433 68.0557 19.9867 67.849 20.2V23.18L69.249 23.61L69.049 24.01H65.759V23.7L66.649 23V20.17L65.759 19.65V19.34L67.469 18.5L67.779 19.73L68.819 18.67C68.959 18.6167 69.1423 18.59 69.369 18.59V18.6ZM76.0569 24H74.1569V23.13L73.0269 24.02C72.8935 24.0733 72.7269 24.1 72.5269 24.1C71.9535 24.1 71.5369 23.9567 71.2769 23.67C71.0235 23.3833 70.8969 23.04 70.8969 22.64C70.8969 22.4 70.9835 22.1633 71.1569 21.93C71.3302 21.6967 71.5769 21.4767 71.8969 21.27H74.1569V20.63C74.1569 20.1967 74.0402 19.89 73.8069 19.71C73.5802 19.53 73.2669 19.44 72.8669 19.44C72.4535 19.44 71.9469 19.69 71.3469 20.19L71.0469 19.81L72.4869 18.67C72.7535 18.6167 73.0735 18.59 73.4469 18.59C74.0535 18.59 74.5235 18.74 74.8569 19.04C75.1902 19.3333 75.3569 19.7633 75.3569 20.33V23.25L76.2569 23.6L76.0569 24ZM72.8469 23.25C73.2535 23.25 73.6902 23.0633 74.1569 22.69V21.68H72.3869C72.3002 21.7867 72.2369 21.8933 72.1969 22C72.1635 22.1067 72.1469 22.2233 72.1469 22.35C72.1469 22.5967 72.2102 22.81 72.3369 22.99C72.4635 23.1633 72.6335 23.25 72.8469 23.25Z" fill="#8D74E4"/>
</svg>
